<svg xmlns="http://www.w3.org/2000/svg" version="1.1" xmlns:xlink="http://www.w3.org/1999/xlink" xmlns:svgjs="http://svgjs.com/svgjs" width="100%" height="100%" viewBox="0 0 1000 600"><rect width="1000" height="600" x="0" y="0" fill="#221144"/><g><circle r="166.66666666666666" cx="306.7769114176432" cy="328.9991111783837" fill="#fad744" transform="matrix(0.8921548415847894,0,0,0.8921548415847893,0,6.481853376284747)"/><path d="M260.5602437673561 392.46577410589674L258.16024376735606 403.2657741058967L156.8935771006894 392.46577410589674L260.5602437673561 392.46577410589674ZM266.0935771006894 369.19910743923L263.4602437673561 379.99910743923004L162.42691043402274 369.19910743923L266.0935771006894 369.19910743923ZM271.3602437673561 346.1657741058967L268.96024376735613 356.96577410589674L167.92691043402274 346.1657741058967L271.3602437673561 346.1657741058967ZM276.8935771006894 323.13244077256337L274.2602437673561 333.9324407725633L173.46024376735608 323.13244077256337L276.8935771006894 323.13244077256337ZM282.16024376735606 300.06577410589665L279.7602437673561 310.86577410589666L178.96024376735608 300.06577410589665L282.16024376735606 300.06577410589665ZM287.6935771006894 277.0324407725633L285.06024376735616 287.8324407725633L184.4935771006894 277.0324407725633L287.6935771006894 277.0324407725633ZM292.96024376735613 253.99910743923L290.5602437673561 264.79910743923L190.02691043402274 253.99910743923L292.96024376735613 253.99910743923ZM328.49357710068944 331.2657741058967L312.8935771006894 403.99910743923004L265.3602437673561 403.99910743923004L300.4269104340228 253.99910743923L359.9269104340228 253.99910743923L364.2602437673561 330.3324407725633L365.9269104340228 330.3324407725633L397.12691043402276 253.99910743923L456.6602437673562 253.99910743923L438.8935771006894 403.99910743923004L391.1269104340228 403.99910743923004L401.2269104340228 331.2657741058967L399.52691043402274 331.2657741058967L369.52691043402274 403.99910743923004L334.7269104340228 403.99910743923004L329.6935771006895 331.2657741058967L328.49357710068944 331.2657741058967Z " fill="#2b3252" transform="matrix(0.8921548415847894,0,0,0.8921548415847893,0,6.481853376284747)"/><path d="M556.7769084109781 255.2729426445522L589.2236317718334 255.2729426445522L589.2236317718334 263.3726061798175L578.4080573182149 263.3726061798175L578.4080573182149 401.28319776840095L567.5924828645965 401.28319776840095L567.5924828645965 263.3726061798175L556.7769084109781 263.3726061798175L556.7769084109781 255.2729426445522ZM608.1388697607172 255.2729426445522L608.1388697607172 322.8582656747189L618.9544442143356 322.8582656747189L618.9544442143356 255.2729426445522L629.770018667954 255.2729426445522L629.770018667954 401.28319776840095L618.9544442143356 401.28319776840095L618.9544442143356 330.9819638198812L608.1388697607172 330.9819638198812L608.1388697607172 401.28319776840095L597.3232953070988 401.28319776840095L597.3232953070988 255.2729426445522L608.1388697607172 255.2729426445522ZM664.9326529471623 255.2729426445522L664.9326529471623 263.3726061798175L651.4011675751908 263.3726061798175L651.4011675751908 320.16638936626276L662.2167420288092 320.16638936626276L662.2167420288092 328.2660529015281L651.4011675751908 328.2660529015281L651.4011675751908 393.1594996232387L664.9326529471623 393.1594996232387L664.9326529471623 401.28319776840095L640.5855931215724 401.28319776840095L640.5855931215724 255.2729426445522L664.9326529471623 255.2729426445522ZM714.6842954338069 355.3049890355741L722.8079935789692 255.2729426445522L733.6235680325876 255.2729426445522L736.3154443410438 401.28319776840095L725.4998698874253 401.28319776840095L725.4998698874253 301.227116767482L717.40020635216 393.1594996232387L711.9924191253508 393.1594996232387L703.8687209801885 301.227116767482L703.8687209801885 401.28319776840095L693.0531465265701 401.28319776840095L695.7690574449232 255.2729426445522L706.5846318985416 255.2729426445522L714.6842954338069 355.3049890355741ZM779.5777421555176 268.7803934066268L779.5777421555176 387.75171239642947Q779.5777421555176 388.7852006219974 779.3373960565482 391.42900771065973Q779.073015347682 394.0968494092189 777.5588349241755 396.8848641572628Q776.0446545006689 399.6728789053066 772.7278783348925 401.8359937960303Q769.4351367790132 403.999108686754 763.35438047509 403.999108686754L763.35438047509 403.999108686754Q757.2736241711666 403.999108686754 753.9808826152873 401.8359937960303Q750.6881410594078 399.6728789053066 749.1739606359013 396.8848641572628Q747.6357456024978 394.0968494092189 747.3953995035286 391.42900771065973Q747.1310187946624 388.7852006219974 747.1310187946624 387.75171239642947L747.1310187946624 387.75171239642947L747.1310187946624 268.7803934066268Q747.1310187946624 268.1074243295127 747.22715723425 266.76148617528463Q747.2992610639408 265.41554802105657 747.7318840420855 263.75715993816846Q748.1404724103334 262.1228064651772 749.1739606359013 260.39231455259824Q750.1834142515725 258.6618226400193 751.9619753839452 257.2197460462035Q753.7165019064212 255.77766945238773 756.5045166544649 254.8883888862013Q759.2925314025088 253.9991083200149 763.35438047509 253.9991083200149L763.35438047509 253.9991083200149Q767.416229547671 253.9991083200149 770.204244295715 254.8883888862013Q772.9922590437588 255.77766945238773 774.7708201761316 257.2197460462035Q776.5493813085045 258.6618226400193 777.5588349241755 260.39231455259824Q778.5682885398464 262.1228064651772 779.0009115179912 263.75715993816846Q779.409499886239 265.41554802105657 779.5056383258268 266.76148617528463Q779.5777421555176 268.1074243295127 779.5777421555176 268.7803934066268L779.5777421555176 268.7803934066268ZM757.9465932482808 268.7803934066268L757.9465932482808 387.75171239642947Q757.9465932482808 388.7852006219974 758.0427316878684 390.17920799601933Q758.1148355175592 391.5732153700413 758.6195623253948 392.8230150846817Q759.1242891332301 394.0968494092189 760.2298811884891 394.9861299754053Q761.3354732437479 395.87541054159175 763.35438047509 395.87541054159175L763.35438047509 395.87541054159175Q765.3973223163289 395.87541054159175 766.4788797616907 394.9861299754053Q767.5844718169496 394.0968494092189 768.089198624785 392.8230150846817Q768.5939254326206 391.5732153700413 768.6900638722084 390.17920799601933Q768.7621677018992 388.7852006219974 768.7621677018992 387.75171239642947L768.7621677018992 387.75171239642947L768.7621677018992 268.7803934066268Q768.7621677018992 267.7709397909557 768.6900638722084 266.59324390600614Q768.5939254326206 265.41554802105657 768.089198624785 264.43012901528243Q767.5844718169496 263.46874461940524 766.4788797616907 262.79577554229127Q765.3973223163289 262.1228064651772 763.35438047509 262.1228064651772L763.35438047509 262.1228064651772Q761.3354732437479 262.1228064651772 760.2298811884891 262.79577554229127Q759.1242891332301 263.46874461940524 758.6195623253948 264.43012901528243Q758.1148355175592 265.41554802105657 758.0427316878684 266.59324390600614Q757.9465932482808 267.7709397909557 757.9465932482808 268.7803934066268L757.9465932482808 268.7803934066268ZM798.5170147542983 255.2729426445522L801.3050295023422 301.227116767482L803.9248019811075 355.3049890355741L806.5445744598728 301.227116767482L809.3325892079167 255.2729426445522L820.1481636615351 255.2729426445522L809.3325892079167 401.28319776840095L798.5170147542983 401.28319776840095L787.7014403006799 255.2729426445522L798.5170147542983 255.2729426445522ZM829.5937653510284 255.2729426445522L840.4093398046468 255.2729426445522L840.4093398046468 401.28319776840095L829.5937653510284 401.28319776840095L829.5937653510284 255.2729426445522ZM876.9179122380833 255.2729426445522L876.9179122380833 263.3726061798175L863.4104614760088 263.3726061798175L863.4104614760088 320.16638936626276L874.2260359296272 320.16638936626276L874.2260359296272 328.2660529015281L863.4104614760088 328.2660529015281L863.4104614760088 393.1594996232387L876.9179122380833 393.1594996232387L876.9179122380833 401.28319776840095L852.5948870223904 401.28319776840095L852.5948870223904 255.2729426445522L876.9179122380833 255.2729426445522ZM926.6935893346249 387.75171239642947L926.6935893346249 268.7803934066268Q926.6935893346249 266.76148617528463 926.1407933069956 265.6558941200259Q925.5879972793662 264.57433667466404 924.314162954829 264.0696098668285Q923.0643632401886 263.564883058993 920.9973867890526 263.46874461940524Q918.9063757280198 263.3726061798175 915.8780148810065 263.3726061798175L915.8780148810065 263.3726061798175L915.8780148810065 393.1594996232387Q918.9063757280198 393.1594996232387 920.9973867890526 393.08739579354784Q923.0643632401886 392.9912573539602 924.314162954829 392.4865305461246Q925.5879972793662 391.9818037382891 926.1407933069956 390.9002462929272Q926.6935893346249 389.79465423766845 926.6935893346249 387.75171239642947L926.6935893346249 387.75171239642947ZM937.5091637882435 268.7803934066268L937.5091637882435 387.75171239642947Q937.5091637882435 392.8230150846817 935.6584988261798 395.58699522282853Q933.7837992542193 398.32694075107855 930.7554384072062 399.6007750756158Q927.7030429502961 400.8505747902562 923.8094361469934 401.06688627932857Q919.9398639535877 401.28319776840095 915.8780148810065 401.28319776840095L915.8780148810065 401.28319776840095L905.0624404273881 401.28319776840095L905.0624404273881 255.2729426445522L915.8780148810065 255.2729426445522Q919.9398639535877 255.2729426445522 923.8094361469934 255.48925413362457Q927.7030429502961 255.70556562269692 930.7554384072062 256.9553653373373Q933.7837992542193 258.22919966187453 935.6584988261798 260.96914519012455Q937.5091637882435 263.7331253282715 937.5091637882435 268.7803934066268L937.5091637882435 268.7803934066268ZM980.7714616027172 333.6738401283373L980.7714616027172 387.75171239642947Q980.7714616027172 392.8230150846817 978.9207966406534 395.58699522282853Q977.0460970686929 398.32694075107855 974.0177362216798 399.6007750756158Q970.9653407647697 400.8505747902562 967.0717339614671 401.06688627932857Q963.2021617680614 401.28319776840095 959.1403126954804 401.28319776840095L959.1403126954804 401.28319776840095L948.3247382418617 401.28319776840095L948.3247382418617 255.2729426445522L959.1403126954804 255.2729426445522Q964.2116153837326 255.2729426445522 968.2253952365197 255.48925413362457Q972.2391750893071 255.70556562269692 975.027189837351 256.9553653373373Q977.8152045853947 258.22919966187453 979.2813157891073 260.96914519012455Q980.7714616027172 263.7331253282715 980.7714616027172 268.7803934066268L980.7714616027172 268.7803934066268L980.7714616027172 314.75860213945356Q980.7714616027172 318.8204512120347 978.752554371375 321.00760071265535Q976.7096125301359 323.2187848231728 972.6477634575549 324.30034226853473L972.6477634575549 324.30034226853473Q976.7096125301359 325.237692054515 978.752554371375 327.4248415551355Q980.7714616027172 329.6360256656531 980.7714616027172 333.6738401283373L980.7714616027172 333.6738401283373ZM959.1403126954804 263.3726061798175L959.1403126954804 320.16638936626276L967.2399762307457 320.16638936626276Q968.2734644563136 320.16638936626276 968.8022258740461 319.70973177822106Q969.3550219016754 319.2290395802825 969.6194026105418 318.4839666734777Q969.859748709511 317.71485915677596 969.9078179293049 316.75347476089877Q969.9558871490985 315.76805575512464 969.9558871490985 314.75860213945356L969.9558871490985 314.75860213945356L969.9558871490985 268.7803934066268Q969.9558871490985 266.76148617528463 969.4030911214693 265.6558941200259Q968.85029509384 264.57433667466404 967.5764607693027 264.0696098668285Q966.3266610546623 263.564883058993 964.2596846035262 263.46874461940524Q962.1686735424935 263.3726061798175 959.1403126954804 263.3726061798175L959.1403126954804 263.3726061798175ZM969.9558871490985 387.75171239642947L969.9558871490985 333.6738401283373Q969.9558871490985 332.6643865126662 969.9078179293049 331.70300211678904Q969.859748709511 330.7175831110149 969.6194026105418 329.9725102042101Q969.3550219016754 329.20340268750834 968.8022258740461 328.74674509946675Q968.2734644563136 328.2660529015281 967.2399762307457 328.2660529015281L967.2399762307457 328.2660529015281L959.1403126954804 328.2660529015281L959.1403126954804 393.1594996232387Q962.1686735424935 393.1594996232387 964.2596846035262 393.08739579354784Q966.3266610546623 392.9912573539602 967.5764607693027 392.4865305461246Q968.85029509384 391.9818037382891 969.4030911214693 390.9002462929272Q969.9558871490985 389.79465423766845 969.9558871490985 387.75171239642947L969.9558871490985 387.75171239642947Z " fill="#fad744" transform="matrix(0.8921548415847894,0,0,0.8921548415847893,0,6.481853376284747)"/></g></svg>